<svg id="visual" viewBox="0 0 900 600" width="900" height="600" xmlns="http://www.w3.org/2000/svg" xmlns:xlink="http://www.w3.org/1999/xlink" version="1.1"><rect x="0" y="0" width="900" height="600" fill="#000000"></rect><defs><linearGradient id="grad1_0" x1="33.3%" y1="0%" x2="100%" y2="100%"><stop offset="20%" stop-color="#000000" stop-opacity="1"></stop><stop offset="80%" stop-color="#000000" stop-opacity="1"></stop></linearGradient></defs><defs><linearGradient id="grad2_0" x1="0%" y1="0%" x2="66.7%" y2="100%"><stop offset="20%" stop-color="#000000" stop-opacity="1"></stop><stop offset="80%" stop-color="#000000" stop-opacity="1"></stop></linearGradient></defs><g transform="translate(900, 0)"><path d="M0 297.5C-38.6 293.1 -77.1 288.7 -113.8 274.8C-150.6 260.9 -185.4 237.6 -207.2 207.2C-228.9 176.8 -237.5 139.4 -250.4 103.7C-263.2 68 -280.3 34 -297.5 0L0 0Z" fill="#084298"></path></g><g transform="translate(0, 600)"><path d="M0 -297.5C26.4 -263.8 52.8 -230.1 91.5 -220.8C130.2 -211.5 181.2 -226.5 210.3 -210.3C239.5 -194.2 246.9 -147 257.8 -106.8C268.6 -66.5 283.1 -33.3 297.5 0L0 0Z" fill="#084298"></path></g></svg>