<svg id="visual" viewBox="0 0 900 600" width="900" height="600" xmlns="http://www.w3.org/2000/svg" xmlns:xlink="http://www.w3.org/1999/xlink" version="1.1"><rect x="0" y="0" width="900" height="600" fill="#fff"></rect><path d="M0 409L129 445L257 367L386 400L514 367L643 411L771 416L900 366L900 601L771 601L643 601L514 601L386 601L257 601L129 601L0 601Z" fill="#084298"></path><path d="M0 428L129 407L257 404L386 402L514 415L643 447L771 414L900 422L900 601L771 601L643 601L514 601L386 601L257 601L129 601L0 601Z" fill="#043284"></path><path d="M0 506L129 491L257 474L386 483L514 476L643 469L771 485L900 463L900 601L771 601L643 601L514 601L386 601L257 601L129 601L0 601Z" fill="#002371"></path><path d="M0 488L129 509L257 500L386 497L514 528L643 502L771 540L900 529L900 601L771 601L643 601L514 601L386 601L257 601L129 601L0 601Z" fill="#00125b"></path><path d="M0 531L129 561L257 534L386 570L514 536L643 569L771 568L900 530L900 601L771 601L643 601L514 601L386 601L257 601L129 601L0 601Z" fill="#000000"></path></svg>