<svg id="visual" viewBox="0 0 900 600" width="900" height="600" xmlns="http://www.w3.org/2000/svg" xmlns:xlink="http://www.w3.org/1999/xlink" version="1.1"><rect x="0" y="0" width="900" height="600" fill="#084298"></rect><defs><linearGradient id="grad1_0" x1="33.3%" y1="0%" x2="100%" y2="100%"><stop offset="20%" stop-color="#084298" stop-opacity="1"></stop><stop offset="80%" stop-color="#084298" stop-opacity="1"></stop></linearGradient></defs><defs><linearGradient id="grad2_0" x1="0%" y1="0%" x2="66.7%" y2="100%"><stop offset="20%" stop-color="#084298" stop-opacity="1"></stop><stop offset="80%" stop-color="#084298" stop-opacity="1"></stop></linearGradient></defs><g transform="translate(900, 0)"><path d="M0 297.5C-22.8 279.8 -45.7 262.2 -67.6 252.1C-89.4 242 -110.3 239.3 -135 233.8C-159.7 228.3 -188.3 220 -200.1 200.1C-211.9 180.3 -206.8 148.9 -221.7 128C-236.6 107.1 -271.4 96.6 -287.3 77C-303.3 57.4 -300.4 28.7 -297.5 0L0 0Z" fill="#fff"></path></g><g transform="translate(0, 600)"><path d="M0 -297.5C25.2 -295.1 50.3 -292.7 77 -287.3C103.6 -281.9 131.8 -273.5 144.5 -250.3C157.2 -227 154.6 -188.9 169.7 -169.7C184.8 -150.5 217.6 -150.2 237.3 -137C257 -123.8 263.6 -97.7 271.4 -72.7C279.3 -47.7 288.4 -23.9 297.5 0L0 0Z" fill="#fff"></path></g></svg>