<svg id="visual" viewBox="0 0 900 600" width="900" height="600" xmlns="http://www.w3.org/2000/svg" xmlns:xlink="http://www.w3.org/1999/xlink" version="1.1"><rect x="0" y="0" width="900" height="600" fill="#084298"></rect><path d="M0 408L129 349L257 367L386 413L514 376L643 354L771 417L900 371L900 601L771 601L643 601L514 601L386 601L257 601L129 601L0 601Z" fill="#ffffff"></path><path d="M0 460L129 426L257 446L386 417L514 467L643 479L771 403L900 455L900 601L771 601L643 601L514 601L386 601L257 601L129 601L0 601Z" fill="#cbcbe6"></path><path d="M0 437L129 488L257 478L386 510L514 495L643 443L771 511L900 442L900 601L771 601L643 601L514 601L386 601L257 601L129 601L0 601Z" fill="#969acc"></path><path d="M0 519L129 512L257 534L386 518L514 482L643 533L771 542L900 530L900 601L771 601L643 601L514 601L386 601L257 601L129 601L0 601Z" fill="#5f6cb2"></path><path d="M0 530L129 569L257 526L386 572L514 563L643 558L771 526L900 559L900 601L771 601L643 601L514 601L386 601L257 601L129 601L0 601Z" fill="#084298"></path></svg>