<svg id="visual" viewBox="0 0 900 600" width="900" height="600" xmlns="http://www.w3.org/2000/svg" xmlns:xlink="http://www.w3.org/1999/xlink" version="1.1"><rect x="0" y="0" width="900" height="600" fill="#084298"></rect><defs><linearGradient id="grad1_0" x1="33.3%" y1="0%" x2="100%" y2="100%"><stop offset="20%" stop-color="#084298" stop-opacity="1"></stop><stop offset="80%" stop-color="#084298" stop-opacity="1"></stop></linearGradient></defs><defs><linearGradient id="grad2_0" x1="0%" y1="0%" x2="66.7%" y2="100%"><stop offset="20%" stop-color="#084298" stop-opacity="1"></stop><stop offset="80%" stop-color="#084298" stop-opacity="1"></stop></linearGradient></defs><g transform="translate(900, 0)"><path d="M0 324.5C-27.3 319.1 -54.5 313.6 -82.6 308.1C-110.6 302.6 -139.4 297.1 -162.2 281C-185.1 265 -202 238.5 -212.8 212.8C-223.7 187.2 -228.4 162.4 -246 142C-263.5 121.6 -293.9 105.7 -309.1 82.8C-324.3 59.9 -324.4 29.9 -324.5 0L0 0Z" fill="#000000"></path></g><g transform="translate(0, 600)"><path d="M0 -324.5C25.3 -309.1 50.7 -293.6 76.4 -284.9C102 -276.3 128 -274.3 152.5 -264.1C177 -253.9 199.9 -235.5 212.8 -212.8C225.8 -190.2 228.8 -163.4 246.8 -142.5C264.9 -121.6 298 -106.7 313.4 -84C328.9 -61.2 326.7 -30.6 324.5 0L0 0Z" fill="#000000"></path></g></svg>